<?xml version="1.0"?>
<!DOCTYPE svg PUBLIC "-//W3C//DTD SVG 1.1//EN" "http://www.w3.org/Graphics/SVG/1.1/DTD/svg11.dtd">
<svg xmlns="http://www.w3.org/2000/svg" xmlns:xl="http://www.w3.org/1999/xlink" version="1.1" viewBox="-10 295 615 253" width="615pt" height="253pt"><metadata xmlns:dc="http://purl.org/dc/elements/1.1/"><dc:date>2013-10-27 15:41Z</dc:date><!-- Produced by OmniGraffle Professional 5.4.3 --></metadata><defs></defs><g stroke="none" stroke-opacity="1" stroke-dasharray="none" fill="none" fill-opacity="1"><title>Canvas 1</title><g><title>Layer 1</title><path d="M -.3462 490.7168 L 62.2118 490.7168 L -.3462 325.5238 Z" fill="#5d9fbb"/><path d="M 124.0078 432.9355 C 136.4348 398.2065 143.6998 370.6095 143.6998 370.6095 C 150.9708 343.0055 156.8278 308.2655 156.8278 308.2655 L 75.5578 308.2655 Z" fill="#5d9fbb"/><path d="M 119.2378 490.7168 L 182.1088 490.7168 L 182.1088 311.9278 C 138.8078 431.7028 145.3658 413.0298 145.3658 413.0298 C 151.9278 394.3478 119.2378 490.7168 119.2378 490.7168 Z" fill="#5d9fbb"/><path d="M 302.2207 307.5879 C 278.9437 331.1559 265.7887 342.8629 265.7887 342.8629 C 247.8127 358.8789 204.2917 390.1279 204.2917 390.1279 L 204.2917 307.5879 Z" fill="#68af38"/><path d="M 204.292 410.2271 L 204.292 490.7171 L 265.703 490.7171 Z" fill="#68af38"/><path d="M 280.2695 353.8179 L 333.3675 307.5879 L 387.4215 307.5879 L 387.4215 490.7169 Z" fill="#68af38"/><path d="M 408.9902 490.7168 L 408.9902 393.9718 C 412.9182 403.9508 430.9982 412.0338 430.9982 412.0338 C 445.9552 418.7198 465.9282 427.4438 474.8122 431.2618 C 491.7242 438.5348 522.9222 452.7328 522.9222 452.7328 C 569.4702 471.9608 576.3442 490.7188 576.3442 490.7188 Z" fill="#941734"/><path d="M 451.2285 304.3989 L 595.3105 304.3989 L 595.3105 388.2109 C 555.5855 371.1509 531.4375 360.6569 531.4375 360.6569 C 480.7775 338.6129 470.2695 332.7609 458.4585 320.1749 C 450.5115 311.6899 451.2285 304.3989 451.2285 304.3989 Z" fill="#941734"/><path d="M 8.6929 536.5371 L 6.9279 536.5371 L .9889 503.6991 L .9889 503.6111 L 2.6669 503.6111 L 7.7459 532.5781 C 7.7889 532.9241 7.8319 533.9571 7.8319 533.9571 C 7.8749 532.9241 7.9179 532.5781 7.9179 532.5781 L 12.9539 503.6111 L 14.6329 503.6111 L 14.6329 503.6991 Z" fill="#040506"/><path d="M 25.396 536.4941 L 25.396 503.6111 L 35.208 503.6111 L 35.208 505.2051 L 27.116 505.2051 L 27.116 518.7641 L 34.346 518.7641 L 34.346 520.3571 L 27.116 520.3571 L 27.116 534.9041 L 35.337 534.9041 L 35.337 536.4961 Z" fill="#040506"/><path d="M 57.5952 536.4941 L 50.5352 519.4081 L 50.7072 518.8481 L 57.1202 518.8481 L 57.1202 505.2031 L 48.3832 505.2031 L 48.3832 536.4921 L 46.6612 536.4921 L 46.6612 503.6091 L 57.2492 503.6091 C 58.2392 503.6091 58.8412 504.2151 58.8412 505.2031 L 58.8412 518.8051 C 58.8412 519.7931 58.2392 520.3531 57.2922 520.3981 L 52.6442 520.3981 L 59.4012 536.4081 L 59.4012 536.4941 Z" fill="#040506"/><path d="M 80.8398 536.4941 L 72.2748 536.4941 C 71.2848 536.4941 70.6398 535.8901 70.6398 534.9021 L 70.6398 525.6481 L 72.3618 525.6481 L 72.3618 534.9021 L 80.7118 534.9021 L 80.7118 526.2091 L 71.2858 514.1581 C 70.8128 513.5961 70.6408 513.1681 70.6408 512.3491 L 70.6408 505.2031 C 70.6408 504.2151 71.2858 503.6111 72.2758 503.6111 L 80.8408 503.6111 C 81.8298 503.6111 82.4338 504.2151 82.4338 505.2031 L 82.4338 513.6821 L 80.7108 513.6821 L 80.7108 505.2031 L 72.3608 505.2031 L 72.3608 512.8651 L 81.8288 525.0041 C 82.3038 525.5641 82.4328 525.9921 82.4328 526.7671 L 82.4328 534.9021 C 82.4328 535.8921 81.8288 536.4941 80.8398 536.4941 Z" fill="#539ebd"/><path d="M 100.0391 506.9277 L 96.4681 526.9417 L 103.5701 526.9417 Z M 105.2481 536.4937 L 103.8281 528.5317 L 96.2101 528.5317 L 94.8331 536.4937 L 93.1551 536.4937 L 93.1551 536.4077 L 99.1801 503.5687 L 100.9881 503.5687 L 106.9711 536.4077 L 106.9711 536.4937 Z" fill="#539ebd"/><path d="M 121.606 505.1621 L 121.606 536.4941 L 119.883 536.4941 L 119.883 505.1621 L 114.59 505.1621 L 114.59 503.6111 L 126.943 503.6111 L 126.943 505.1621 Z" fill="#539ebd"/><rect x="137.492" y="503.611" width="1.722" height="32.883" fill="#539ebd"/><path d="M 151.481 536.4941 L 151.481 503.6111 L 153.203 503.6111 L 153.203 534.9021 L 161.08 534.9021 L 161.08 536.4941 Z" fill="#539ebd"/><path d="M 171.9292 536.4941 L 171.9292 503.6111 L 181.7412 503.6111 L 181.7412 505.2051 L 173.6492 505.2051 L 173.6492 518.7641 L 180.8782 518.7641 L 180.8782 520.3571 L 173.6492 520.3571 L 173.6492 534.9041 L 181.8702 534.9041 L 181.8702 536.4961 Z" fill="#539ebd"/><path d="M 215.1553 536.4941 L 206.5903 520.2671 L 206.5903 536.4941 L 204.8683 536.4941 L 204.8683 503.6111 L 206.5903 503.6111 L 206.5903 518.8051 L 214.4673 503.6111 L 216.3613 503.6111 L 216.3613 503.7401 L 208.1393 519.4941 L 217.0493 536.3651 L 217.0493 536.4941 Z" fill="#040506"/><path d="M 235.7744 536.4941 L 226.6494 510.0251 L 226.1304 508.3891 C 226.2604 509.4651 226.2604 510.1111 226.2604 510.1111 L 226.2604 536.4941 L 224.6244 536.4941 L 224.6244 503.6111 L 226.1304 503.6111 L 235.2124 529.8671 L 235.7314 531.5021 C 235.5584 530.4281 235.5584 529.7811 235.5584 529.7811 L 235.5584 503.6111 L 237.1944 503.6111 L 237.1944 536.4941 Z" fill="#040506"/><path d="M 257.9 505.205 L 248.473 505.205 L 248.473 534.902 L 257.9 534.902 Z M 258.029 536.494 L 248.345 536.494 C 247.355 536.494 246.751 535.891 246.751 534.902 L 246.751 505.205 C 246.751 504.217 247.355 503.611 248.345 503.611 L 258.029 503.611 C 259.062 503.611 259.664 504.217 259.664 505.205 L 259.664 534.902 C 259.665 535.893 259.062 536.494 258.029 536.494" fill="#040506"/><path d="M 284.1152 536.5371 L 282.4802 536.5371 L 278.4332 508.7751 C 278.3902 508.4751 278.3472 506.7971 278.3472 506.7971 C 278.3042 508.4761 278.2612 508.7751 278.2612 508.7751 L 274.2162 536.5371 L 272.5802 536.5371 L 267.8882 503.6111 L 269.6112 503.6111 L 273.3542 531.0271 C 273.3982 531.2441 273.4412 532.7091 273.4412 532.7091 C 273.4842 531.2441 273.5272 531.0271 273.5272 531.0271 L 277.5292 503.6111 L 279.1652 503.6111 L 283.1672 531.0271 C 283.2102 531.2441 283.2542 532.7091 283.2542 532.7091 C 283.2972 531.2441 283.3392 531.0271 283.3392 531.0271 L 287.0822 503.6111 L 288.8042 503.6111 Z" fill="#040506"/><path d="M 297.0757 536.4941 L 297.0757 503.6111 L 298.7987 503.6111 L 298.7987 534.9021 L 306.6737 534.9021 L 306.6737 536.4941 Z" fill="#68af38"/><path d="M 315.0254 536.4941 L 315.0254 503.6111 L 324.8384 503.6111 L 324.8384 505.2051 L 316.7444 505.2051 L 316.7444 518.7641 L 323.9744 518.7641 L 323.9744 520.3571 L 316.7444 520.3571 L 316.7444 534.9041 L 324.9664 534.9041 L 324.9664 536.4961 Z" fill="#68af38"/><path d="M 344.5996 508.4766 C 344.5996 506.3266 343.4376 505.2066 341.3286 505.2066 L 335.5176 505.2066 L 335.5176 534.9046 L 341.2426 534.9046 C 343.4806 534.9046 344.5996 533.6996 344.5996 531.6326 Z M 341.4116 536.4946 L 333.7946 536.4946 L 333.7946 503.6116 L 341.4116 503.6116 C 344.6406 503.6116 346.3186 505.4646 346.3186 508.4746 L 346.3186 531.6306 C 346.3186 534.6876 344.5996 536.4946 341.4116 536.4946" fill="#68af38"/><path d="M 366.5078 536.4941 L 357.4278 536.4941 C 356.4378 536.4941 355.8358 535.8901 355.8358 534.9021 L 355.8358 505.2051 C 355.8358 504.2171 356.4378 503.6111 357.4278 503.6111 L 366.5078 503.6111 C 367.4978 503.6111 368.1018 504.2171 368.1018 505.2051 L 368.1018 513.6421 L 366.3358 513.6421 L 366.3358 505.2051 L 357.5568 505.2051 L 357.5568 534.9021 L 366.3358 534.9021 L 366.3358 522.1621 L 362.2888 522.1621 L 362.2888 520.6131 L 368.1018 520.6131 L 368.1018 534.9021 C 368.1018 535.8921 367.4978 536.4941 366.5078 536.4941 Z" fill="#68af38"/><path d="M 377.6152 536.4941 L 377.6152 503.6111 L 387.4282 503.6111 L 387.4282 505.2051 L 379.3342 505.2051 L 379.3342 518.7641 L 386.5662 518.7641 L 386.5662 520.3571 L 379.3342 520.3571 L 379.3342 534.9041 L 387.5562 534.9041 L 387.5562 536.4961 Z" fill="#68af38"/><path d="M 418.3145 538.5371 L 409.7505 538.5371 C 408.7615 538.5371 408.1135 537.9331 408.1135 536.9451 L 408.1135 527.6911 L 409.8375 527.6911 L 409.8375 536.9451 L 418.1875 536.9451 L 418.1875 528.2521 L 408.7615 516.2011 C 408.2855 515.6391 408.1155 515.2111 408.1155 514.3921 L 408.1155 507.2461 C 408.1155 506.2581 408.7615 505.6541 409.7515 505.6541 L 418.3165 505.6541 C 419.3065 505.6541 419.9105 506.2581 419.9105 507.2461 L 419.9105 515.7251 L 418.1875 515.7251 L 418.1875 507.2461 L 409.8375 507.2461 L 409.8375 514.9081 L 419.3065 527.0451 C 419.7795 527.6051 419.9105 528.0351 419.9105 528.8101 L 419.9105 536.9471 C 419.9085 537.9351 419.3065 538.5371 418.3145 538.5371 Z" fill="#040506"/><path d="M 443.8437 525.6699 L 443.8437 538.5369 L 442.1207 538.5369 L 442.1207 525.6699 L 436.0957 505.7829 L 436.0957 505.6559 L 437.8187 505.6559 L 442.9847 523.4299 L 448.1467 505.6559 L 449.8707 505.6559 L 449.8707 505.7829 Z" fill="#040506"/><path d="M 476.1719 538.5371 L 467.6079 538.5371 C 466.6189 538.5371 465.9709 537.9331 465.9709 536.9451 L 465.9709 527.6911 L 467.6929 527.6911 L 467.6929 536.9451 L 476.0429 536.9451 L 476.0429 528.2521 L 466.6189 516.2011 C 466.1449 515.6391 465.9729 515.2111 465.9729 514.3921 L 465.9729 507.2461 C 465.9729 506.2581 466.6189 505.6541 467.6089 505.6541 L 476.1739 505.6541 C 477.1619 505.6541 477.7659 506.2581 477.7659 507.2461 L 477.7659 515.7251 L 476.0429 515.7251 L 476.0429 507.2461 L 467.6929 507.2461 L 467.6929 514.9081 L 477.1619 527.0451 C 477.6369 527.6051 477.7659 528.0351 477.7659 528.8101 L 477.7659 536.9471 C 477.7639 537.9351 477.1599 538.5371 476.1719 538.5371 Z" fill="#040506"/><path d="M 501.0117 507.2031 L 501.0117 538.5371 L 499.2887 538.5371 L 499.2887 507.2031 L 493.9937 507.2031 L 493.9937 505.6541 L 506.3477 505.6541 L 506.3477 507.2031 Z" fill="#941734"/><path d="M 522.5781 538.5371 L 522.5781 505.6541 L 532.3911 505.6541 L 532.3911 507.2481 L 524.3011 507.2481 L 524.3011 520.8071 L 531.5311 520.8071 L 531.5311 522.4001 L 524.3011 522.4001 L 524.3011 536.9471 L 532.5211 536.9471 L 532.5211 538.5391 Z" fill="#941734"/><path d="M 563.3418 538.5371 L 563.3418 513.3571 C 563.3418 512.8421 563.5158 511.2071 563.5158 511.2071 L 563.0408 513.5311 L 557.7048 535.9571 L 557.0158 535.9571 L 551.6798 513.5311 L 551.2048 511.2071 C 551.3788 512.8441 551.3788 513.3571 551.3788 513.3571 L 551.3788 538.5371 L 549.6988 538.5371 L 549.6988 505.6541 L 551.4218 505.6541 L 557.1448 529.5001 C 557.2758 529.9731 557.3188 530.5741 557.3618 531.4781 C 557.4048 530.5741 557.4468 529.9711 557.5758 529.5001 L 563.3028 505.6541 L 565.0238 505.6541 L 565.0238 538.5371 Z" fill="#941734"/><path d="M 593.002 538.5371 L 584.438 538.5371 C 583.449 538.5371 582.803 537.9331 582.803 536.9451 L 582.803 527.6911 L 584.525 527.6911 L 584.525 536.9451 L 592.875 536.9451 L 592.875 528.2521 L 583.449 516.2011 C 582.975 515.6391 582.803 515.2111 582.803 514.3921 L 582.803 507.2461 C 582.803 506.2581 583.449 505.6541 584.438 505.6541 L 593.002 505.6541 C 593.99 505.6541 594.596 506.2581 594.596 507.2461 L 594.596 515.7251 L 592.873 515.7251 L 592.873 507.2461 L 584.522 507.2461 L 584.522 514.9081 L 593.99 527.0451 C 594.467 527.6051 594.594 528.0351 594.594 528.8101 L 594.594 536.9471 C 594.596 537.9351 593.99 538.5371 593.002 538.5371 Z" fill="#941734"/></g></g></svg>
